<?xml version="1.0" encoding="UTF-8" standalone="no"?>
<!-- Created with Inkscape (http://www.inkscape.org/) -->

<svg
   xmlns:dc="http://purl.org/dc/elements/1.1/"
   xmlns:cc="http://creativecommons.org/ns#"
   xmlns:rdf="http://www.w3.org/1999/02/22-rdf-syntax-ns#"
   xmlns:svg="http://www.w3.org/2000/svg"
   xmlns="http://www.w3.org/2000/svg"
   xmlns:sodipodi="http://sodipodi.sourceforge.net/DTD/sodipodi-0.dtd"
   xmlns:inkscape="http://www.inkscape.org/namespaces/inkscape"
   version="1.1"
   id="svg2"
   xml:space="preserve"
   width="1082.6541mm"
   height="379.73013mm"
   viewBox="0 0 4091.921 1435.2006"
   sodipodi:docname="Logo_iosnet_color_proj.svg"
   inkscape:version="0.92.4 (5da689c313, 2019-01-14)"
   inkscape:export-filename="/mnt/Data/LE2P/Charte-LE2P/Projets/Logo_carerc_color.png"
   inkscape:export-xdpi="30"
   inkscape:export-ydpi="30"><metadata
     id="metadata8"><rdf:RDF><cc:Work
         rdf:about=""><dc:format>image/svg+xml</dc:format><dc:type
           rdf:resource="http://purl.org/dc/dcmitype/StillImage" /><dc:title></dc:title></cc:Work></rdf:RDF></metadata><defs
     id="defs6" /><sodipodi:namedview
     pagecolor="#ffffff"
     bordercolor="#666666"
     borderopacity="1"
     objecttolerance="10"
     gridtolerance="10"
     guidetolerance="10"
     inkscape:pageopacity="0"
     inkscape:pageshadow="2"
     inkscape:window-width="1860"
     inkscape:window-height="1052"
     id="namedview4"
     showgrid="false"
     inkscape:zoom="0.25440375"
     inkscape:cx="2045.9604"
     inkscape:cy="717.60025"
     inkscape:window-x="60"
     inkscape:window-y="0"
     inkscape:window-maximized="1"
     inkscape:current-layer="g27"
     fit-margin-top="40"
     fit-margin-left="40"
     fit-margin-right="40"
     fit-margin-bottom="40"
     showborder="true"
     units="mm" /><g
     id="g10"
     inkscape:groupmode="layer"
     inkscape:label="ink_ext_XXXXXX"
     transform="matrix(1.3333333,0,0,-1.3333333,-343.11187,2541.4039)"><g
       id="g12"
       transform="scale(0.1)"><g
         id="g4542"
         style="fill:#f2f2f2"><g
           id="g834"
           transform="matrix(7.6433204,0,0,7.6433204,-1457.9631,-4553.3759)"
           style="fill:#154164;fill-opacity:1;stroke-width:0.13083319"><g
             id="g18"
             transform="matrix(10,0,0,10,261.01223,0)"
             style="fill:#154164;fill-opacity:1;stroke-width:0.13083319"><g
   aria-label="IOS-net"
   transform="matrix(1,0,0,-1,36.4094,210.68)"
   style="font-variant:normal;font-weight:900;font-size:112.59600067px;font-family:'Exo 2';-inkscape-font-specification:Exo-Black;writing-mode:lr-tb;fill:#154164;fill-opacity:1;fill-rule:nonzero;stroke:none;stroke-width:0.13083319"
   id="text22"><path
     d="M 5.06682,0 V -82.420272 H 26.910444 V 0 Z"
     style="font-style:normal;font-variant:normal;font-weight:900;font-stretch:normal;font-family:Exo;-inkscape-font-specification:'Exo Heavy';fill:#154164;fill-opacity:1;stroke-width:0.13083319"
     id="path827" /><path
     d="m 39.12535,-13.286328 q -2.25192,-4.50384 -3.37788,-11.2596 -1.013364,-6.868356 -1.013364,-15.538248 0,-8.669892 0.900768,-14.975268 1.013364,-6.417972 2.477112,-10.809216 1.576344,-4.50384 4.053456,-7.656528 2.589708,-3.152688 5.179416,-4.954224 2.702304,-1.801536 6.417972,-2.8149 5.854992,-1.68894 12.723348,-1.68894 6.980952,0 10.358832,0.337788 3.490476,0.337788 7.206145,1.351152 3.828264,1.013364 6.417972,2.8149 2.702304,1.801536 5.179416,4.954224 2.477112,3.152688 4.053456,7.543932 3.265281,9.795852 3.265281,22.969584 0,13.061136 -1.68894,20.605068 -1.688937,7.543932 -4.391241,11.935176 -2.702304,4.391244 -7.31874,6.868356 -4.616436,2.477112 -9.345469,3.265284 -4.616436,0.788172 -10.921812,0.788172 -6.19278,0 -10.13364,-0.450384 -3.828264,-0.450384 -8.106912,-1.801536 -4.278648,-1.463748 -6.980952,-4.278648 -2.702304,-2.8149001 -4.954224,-7.206144 z m 21.95622,-48.528876 q -2.364516,1.463748 -3.490476,6.19278 -1.013364,4.729032 -1.013364,16.551612 0,11.82258 2.139324,15.876036 2.139324,4.053456 9.795852,4.053456 7.656528,0 10.13364,-4.278648 2.477113,-4.278648 2.477113,-14.524884 0,-10.246236 -0.450385,-14.412288 -0.450384,-4.166052 -1.914132,-6.75576 -1.351152,-2.702304 -3.603072,-3.490476 -2.25192,-0.788172 -6.980952,-0.788172 -4.616436,0 -7.093548,1.576344 z"
     style="font-style:normal;font-variant:normal;font-weight:900;font-stretch:normal;font-family:Exo;-inkscape-font-specification:'Exo Heavy';fill:#154164;fill-opacity:1;stroke-width:0.13083319"
     id="path829" /><path
     d="m 109.94472,-53.933484 v -6.868356 q 0,-10.584024 6.08018,-16.101228 6.19278,-5.517204 16.21382,-6.19278 4.39125,-0.337788 8.5573,-0.337788 15.42565,0 26.34746,4.053456 v 17.001996 q -10.24623,-1.12596 -27.02304,-1.12596 -4.95422,0 -6.64316,0.788172 -1.68894,0.788172 -1.68894,4.166052 v 1.238556 q 0,2.927496 1.23856,4.166052 1.23855,1.238556 5.5172,1.238556 h 10.58402 q 13.39893,0 18.57834,11.597388 2.47712,5.6298 2.47712,12.272964 v 3.715668 q 0,25.22150401 -22.85699,25.22150401 -16.43902,0 -21.50584,-0.56298001 -5.06682,-0.450384 -13.28633,-3.265284 v -17.001996 q 12.38556,1.238556 29.16237,1.238556 3.60307,0 5.06682,-1.013364 1.57634,-1.12596 1.57634,-3.603072 v -1.801536 q 0,-2.589708 -1.23855,-3.715668 -1.23856,-1.238556 -4.72904,-1.238556 h -10.13364 q -6.08018,0 -10.58402,-2.026728 -4.39124,-2.026728 -6.53057,-4.729032 -2.13932,-2.702304 -3.49047,-6.417972 -1.68894,-5.179416 -1.68894,-10.69662 z"
     style="font-style:normal;font-variant:normal;font-weight:900;font-stretch:normal;font-family:Exo;-inkscape-font-specification:'Exo Heavy';fill:#154164;fill-opacity:1;stroke-width:0.13083319"
     id="path831" /><path
     d="m 176.20395,-23.982948 v -17.339784 h 35.35514 v 17.339784 z"
     style="font-style:normal;font-variant:normal;font-weight:900;font-stretch:normal;font-family:Exo;-inkscape-font-specification:'Exo Heavy';fill:#154164;fill-opacity:1;stroke-width:0.13083319"
     id="path833" /><path
     d="m 217.58473,0 v -59.788476 h 18.24056 l 3.60307,5.854992 q 2.47711,-2.364516 3.94086,-3.490476 1.57634,-1.12596 4.84163,-2.25192 3.37788,-1.12596 8.3321,-1.12596 4.95422,0 8.5573,1.68894 3.60307,1.576344 5.29201,4.954224 1.68894,3.37788 2.25192,6.980952 0.56298,3.490476 0.56298,8.895084 V 0 h -21.84363 v -38.733024 q 0,-3.37788 -0.90076,-4.616436 -0.90077,-1.238556 -2.8149,-1.238556 -6.41798,0 -8.21951,4.166052 V 0 Z"
     style="font-style:normal;font-variant:normal;font-weight:900;font-stretch:normal;font-family:Exo;-inkscape-font-specification:'Exo Heavy';fill:#154164;fill-opacity:1;stroke-width:0.13083319"
     id="path835" /><path
     d="m 331.72189,-2.589708 q -6.30537,3.152688 -23.30737,3.152688 -4.72903,0 -9.34547,0 -11.0344,0 -15.42565,-7.31874 -4.27865,-7.31874 -4.27865,-21.618432 0,-14.299692 2.58971,-20.717664 2.70231,-6.530568 7.99432,-8.782488 5.29201,-2.364516 14.52488,-2.364516 9.23287,0 13.84931,0.675576 4.61644,0.675576 8.21951,3.040092 3.60307,2.364516 4.95422,6.75576 1.35115,4.391244 1.35115,12.498156 0,8.106912 -4.50384,11.709984 -4.50384,3.603072 -13.17373,3.603072 h -13.9619 q 0,3.37788 1.57634,5.292012 1.01337,1.238556 4.72903,1.238556 l 7.31874,-0.112596 q 8.4447,0 16.8894,-1.238556 z m -23.98294,-33.21582 q 1.46374,0 2.36451,-1.013364 0.90077,-1.013364 0.90077,-3.490476 0,-2.477112 -0.67558,-3.603072 -0.56298,-1.238556 -3.82826,-1.238556 -3.15269,0 -4.27865,1.576344 -1.01336,1.463748 -1.01336,6.643164 0,0.56298 0,1.12596 z"
     style="font-style:normal;font-variant:normal;font-weight:900;font-stretch:normal;font-family:Exo;-inkscape-font-specification:'Exo Heavy';fill:#154164;fill-opacity:1;stroke-width:0.13083319"
     id="path837" /><path
     d="m 336.60751,-44.813208 v -10.809216 l 8.4447,-4.278648 3.15269,-16.664208 h 18.69094 v 16.664208 h 10.02104 v 15.087864 h -10.02104 v 18.916128 q 0,5.517204 0.90077,7.656528 1.01336,2.139324 3.15268,3.265284 4.72904,2.364516 5.51721,2.364516 V 0.112596 h -16.8894 q -7.09355,0 -10.80922,-4.954224 -3.71567,-5.0668201 -3.71567,-16.551612 v -23.419968 z"
     style="font-style:normal;font-variant:normal;font-weight:900;font-stretch:normal;font-family:Exo;-inkscape-font-specification:'Exo Heavy';fill:#154164;fill-opacity:1;stroke-width:0.13083319"
     id="path839" /></g>




</g><g
             id="g27"
             transform="translate(-92.237405)"><g
               id="g830"
               transform="translate(641.73681)"><path
                 d="m 1645.05,1966.19 h -16.22 v -22.43 h 16.22 c 3.53,0 5.78,0.85 6.74,2.58 0.96,1.71 1.44,4.59 1.44,8.63 0,4.04 -0.58,6.92 -1.74,8.64 -1.16,1.72 -3.31,2.58 -6.44,2.58"
                 style="fill:#f39916;fill-opacity:1;fill-rule:nonzero;stroke:none;stroke-width:0.13083319"
                 id="path24"
                 inkscape:connector-curvature="0" /><path
                 d="m 1778.65,1959.9 c -1.27,2.38 -2.91,3.91 -4.93,4.62 -2.02,0.7 -5.13,1.07 -9.32,1.07 -4.19,0 -7.38,-0.69 -9.55,-2.05 -2.17,-1.37 -3.74,-4.17 -4.7,-8.41 -0.96,-4.25 -1.44,-11.67 -1.44,-22.29 0,-10.6 0.96,-17.72 2.88,-21.37 1.92,-3.63 6.32,-5.45 13.19,-5.45 6.87,0 11.42,1.92 13.64,5.76 2.22,3.84 3.33,10.36 3.33,19.55 0,9.2 -0.2,15.66 -0.6,19.4 -0.41,3.73 -1.24,6.79 -2.5,9.17"
                 style="fill:#f39916;fill-opacity:1;fill-rule:nonzero;stroke:none;stroke-width:0.13083319"
                 id="path26"
                 inkscape:connector-curvature="0" /><path
                 d="m 1521.38,1966.19 h -16.97 v -23.49 h 16.97 c 5.15,0 7.73,3.91 7.73,11.74 0,7.84 -2.58,11.75 -7.73,11.75"
                 style="fill:#f39916;fill-opacity:1;fill-rule:nonzero;stroke:none;stroke-width:0.13083319"
                 id="path28"
                 inkscape:connector-curvature="0" /><path
                 d="m 2130.02,1964.82 h -28.79 v -84.57 h -29.4 v 84.57 h -27.89 v 26.37 h 86.08 z m -121.54,-0.76 h -40.47 c -2.42,0 -4.27,-0.48 -5.53,-1.43 -1.26,-0.97 -1.97,-1.93 -2.12,-2.88 -0.15,-0.96 -0.23,-2.36 -0.23,-4.17 v -6.67 l 40.77,-1.66 v -24.41 l -40.77,-1.37 v -6.66 c 0,-3.84 1.06,-6.17 3.19,-6.97 1.71,-0.6 3.78,-0.91 6.21,-0.91 h 38.95 v -24.56 c -10.21,-1.31 -23.39,-2.12 -39.56,-2.42 l -8.49,-0.15 c -0.81,0 -1.79,0 -2.95,0 -1.16,0 -2.68,0.07 -4.55,0.23 -1.87,0.15 -4.24,0.73 -7.12,1.74 -2.88,1.01 -5.38,2.35 -7.5,4.02 -2.12,1.66 -3.92,4.11 -5.39,7.34 -1.46,3.24 -2.19,7.08 -2.19,11.53 v 60.77 c 0,17.18 9.4,25.76 28.19,25.76 21.22,0 37.74,-0.81 49.56,-2.42 z m -119.12,-58.8 c 0,-11.31 -2.73,-18.74 -8.19,-22.27 -3.74,-2.23 -9.8,-3.34 -18.19,-3.34 -8.38,0 -14.85,1.46 -19.4,4.39 v 23.34 c 4.05,0 7.15,0.18 9.33,0.53 2.17,0.36 3.78,1.22 4.85,2.58 1.06,1.37 1.69,2.78 1.89,4.25 0.2,1.46 0.3,3.91 0.3,7.35 v 69.1 h 29.41 z m -80.48,5.16 c -1.52,-6.78 -3.48,-12.13 -5.91,-16.06 -2.42,-3.95 -5.71,-7.04 -9.85,-9.25 -4.15,-2.23 -8.32,-3.69 -12.5,-4.4 -4.2,-0.71 -9.1,-1.06 -14.71,-1.06 -5.6,0 -10.15,0.2 -13.63,0.6 -3.49,0.4 -7.15,1.24 -10.99,2.5 -3.84,1.27 -6.97,3.17 -9.4,5.69 -2.42,2.53 -4.65,5.78 -6.67,9.77 -2.02,4 -3.51,9.05 -4.47,15.16 -0.96,6.11 -1.44,13.06 -1.44,20.84 0,7.78 0.43,14.52 1.29,20.23 0.86,5.71 1.97,10.56 3.34,14.55 1.36,3.99 3.18,7.41 5.45,10.23 2.28,2.83 4.59,5.05 6.97,6.67 2.38,1.62 5.23,2.88 8.57,3.79 5.25,1.51 10.98,2.27 17.2,2.27 6.21,0 10.86,-0.15 13.94,-0.46 3.08,-0.3 6.31,-0.9 9.7,-1.81 3.39,-0.91 6.26,-2.17 8.64,-3.79 2.37,-1.62 4.67,-3.84 6.89,-6.67 2.23,-2.82 4.04,-6.21 5.46,-10.16 2.93,-8.79 4.39,-19.07 4.39,-30.84 0,-11.76 -0.75,-21.03 -2.27,-27.8 z m -156.86,-30.17 -14.25,39.26 -9.09,2.12 v -41.38 h -29.4 v 110.94 h 49.56 c 10.71,0 19.04,-2.7 25.01,-8.1 5.95,-5.41 8.94,-14.57 8.94,-27.51 0,-12.63 -1.77,-21.17 -5.31,-25.61 -1.92,-2.23 -3.61,-3.82 -5.07,-4.77 -1.47,-0.97 -3.46,-1.96 -5.99,-2.96 l 19.09,-41.99 z m -95.63,57.45 c -1.52,-4.96 -3.41,-8.72 -5.68,-11.29 -2.27,-2.58 -5.06,-4.57 -8.34,-5.99 -3.28,-1.42 -5.98,-2.23 -8.11,-2.42 -2.12,-0.21 -3.94,-0.31 -5.45,-0.31 -1.52,0 -3.34,0.07 -5.46,0.23 -2.12,0.15 -5.71,0.62 -10.76,1.44 -5.05,0.81 -7.78,1.31 -8.18,1.51 v -40.62 H 1475 v 110.94 h 49.41 c 12.43,0 21.32,-3.13 26.68,-9.39 2.22,-2.43 4.04,-5.91 5.45,-10.46 1.42,-4.54 2.13,-10.05 2.13,-16.52 0,-6.47 -0.76,-12.17 -2.28,-17.12 z m -134.15,111.73 v -219.89 h 766.08 v 219.89 h -766.08"
                 style="fill:#f39916;fill-opacity:1;fill-rule:nonzero;stroke:none;stroke-width:0.13083319"
                 id="path30"
                 inkscape:connector-curvature="0" /></g><g
               style="fill:#154164;fill-opacity:1;stroke-width:0.13083319"
               transform="matrix(15.8079,0,0,15.8079,-1198.771,-1189.2968)"
               id="g32"><g
   aria-label="Indian Ocean Solar Network"
   transform="matrix(1,0,0,-1,257.292,198.452)"
   style="font-variant:normal;font-weight:normal;font-size:8.80259037px;font-family:TitilliumWeb;-inkscape-font-specification:TitilliumWeb-Regular;writing-mode:lr-tb;fill:#154164;fill-opacity:1;fill-rule:nonzero;stroke:none;stroke-width:0.13083319"
   id="text36"><path
     d="M 0.74822018,0 V -6.0913925 H 1.4260196 V 0 Z"
     style="fill:#154164;fill-opacity:1;stroke-width:0.13083319"
     id="path842" /><path
     d="M 3.4602432,0 H 2.8000489 v -4.4012952 h 0.6513917 v 0.3080907 q 0.7130098,-0.3961166 1.3644015,-0.3961166 0.880259,0 1.1795471,0.4753399 0.3080907,0.4753399 0.3080907,1.6900973 V 0 H 5.6520882 v -2.3062787 q 0,-0.9154694 -0.1848544,-1.2499678 -0.1760518,-0.343301 -0.7658254,-0.343301 -0.2816829,0 -0.5985761,0.088026 -0.3080907,0.079223 -0.4753399,0.1584466 l -0.1672492,0.079223 z"
     style="fill:#154164;fill-opacity:1;stroke-width:0.13083319"
     id="path844" /><path
     d="M 10.908198,-6.3202599 V 0 H 10.256806 V -0.29928807 Q 9.5790066,0.0880259 8.9188123,0.0880259 8.5667087,0.0880259 8.302631,0 8.0385533,-0.0880259 7.8096859,-0.31689325 7.3343461,-0.79223313 7.3343461,-2.0686087 q 0,-1.2851782 0.4225243,-1.848544 0.4313269,-0.5721684 1.417217,-0.5721684 0.5105503,0 1.0827186,0.1144337 v -1.9453725 z m -2.5879618,5.52802677 q 0.1408414,0.16724921 0.2992881,0.22886735 0.1584466,0.0616181 0.4049191,0.0616181 0.2552751,0 0.5633658,-0.0792233 0.3168932,-0.0880259 0.4929448,-0.16724922 l 0.176052,-0.0792233 V -3.8115216 q -0.5633657,-0.1056311 -1.0475082,-0.1056311 -0.6689969,0 -0.9330746,0.4313269 -0.2640777,0.4225244 -0.2640777,1.3203886 0,1.0211005 0.3080907,1.37320407 z"
     style="fill:#154164;fill-opacity:1;stroke-width:0.13083319"
     id="path846" /><path
     d="m 12.187187,0 v -4.4012952 h 0.660194 V 0 Z m 0,-5.3959879 v -0.7658254 h 0.660194 v 0.7658254 z"
     style="fill:#154164;fill-opacity:1;stroke-width:0.13083319"
     id="path848" /><path
     d="m 17.220068,-3.072104 v 2.2534631 q 0.02641,0.32569584 0.51055,0.38731397 L 17.70421,0.0880259 q -0.695405,0 -1.047508,-0.35210361 -0.792233,0.35210361 -1.584466,0.35210361 -0.607379,0 -0.924272,-0.34330102 -0.316894,-0.34330103 -0.316894,-0.98589008 0,-0.6425891 0.325696,-0.9418772 0.325696,-0.3080907 1.021101,-0.3785114 l 1.382006,-0.1320389 V -3.072104 q 0,-0.4489321 -0.193657,-0.6425891 -0.193657,-0.193657 -0.528155,-0.193657 -0.704207,0 -1.46123,0.088026 l -0.27288,0.026408 -0.02641,-0.5017477 q 0.968285,-0.193657 1.716505,-0.193657 0.74822,0 1.082719,0.343301 0.343301,0.3433011 0.343301,1.0739161 z m -2.711198,1.7957284 q 0,0.80983831 0.668997,0.80983831 0.598576,0 1.179547,-0.20245958 l 0.202459,-0.0704207 V -2.191845 l -1.302783,0.1232363 q -0.396117,0.03521 -0.572168,0.2288673 -0.176052,0.193657 -0.176052,0.5633658 z"
     style="fill:#154164;fill-opacity:1;stroke-width:0.13083319"
     id="path850" /><path
     d="M 19.191434,0 H 18.53124 v -4.4012952 h 0.651392 v 0.3080907 q 0.713009,-0.3961166 1.364401,-0.3961166 0.880259,0 1.179547,0.4753399 0.308091,0.4753399 0.308091,1.6900973 V 0 h -0.651392 v -2.3062787 q 0,-0.9154694 -0.184854,-1.2499678 -0.176052,-0.343301 -0.765826,-0.343301 -0.281683,0 -0.598576,0.088026 -0.30809,0.079223 -0.47534,0.1584466 l -0.167249,0.079223 z"
     style="fill:#154164;fill-opacity:1;stroke-width:0.13083319"
     id="path852" /><path
     d="m 25.765319,-3.0192885 q 0,1.3379937 0.352104,1.9277673 0.352103,0.58097096 1.355599,0.58097096 1.012297,0 1.355598,-0.57216836 0.352104,-0.5721684 0.352104,-1.9189647 0,-1.3467963 -0.360906,-1.9629777 -0.360906,-0.6161813 -1.355599,-0.6161813 -0.98589,0 -1.346796,0.6161813 -0.352104,0.6073788 -0.352104,1.9453725 z m 4.119612,0.017605 q 0,1.6284792 -0.519353,2.3590942 -0.519352,0.730615 -1.892556,0.730615 -1.364402,0 -1.883755,-0.74822018 -0.519353,-0.74822022 -0.519353,-2.35029162 0,-1.610874 0.528156,-2.385502 0.528155,-0.7834305 1.874952,-0.7834305 1.346796,0 1.874951,0.7746279 0.536958,0.774628 0.536958,2.4031072 z"
     style="fill:#154164;fill-opacity:1;stroke-width:0.13083319"
     id="path854" /><path
     d="m 32.659122,-4.4893211 q 0.290486,0 0.985891,0.1056311 l 0.211262,0.026408 -0.02641,0.536958 q -0.704207,-0.079223 -1.038706,-0.079223 -0.74822,0 -1.0211,0.3609062 -0.264078,0.3521036 -0.264078,1.3203885 0,0.9594824 0.246473,1.33799376 0.255275,0.37851139 1.047508,0.37851139 l 1.038705,-0.0792233 0.02641,0.5457606 q -0.818641,0.12323626 -1.22356,0.12323626 -1.029903,0 -1.426019,-0.52815542 -0.387314,-0.52815542 -0.387314,-1.77812328 0,-1.2587704 0.422524,-1.760518 0.422524,-0.5105503 1.408414,-0.5105503 z"
     style="fill:#154164;fill-opacity:1;stroke-width:0.13083319"
     id="path856" /><path
     d="m 37.788281,-0.5457606 0.255275,-0.0264078 0.0176,0.51935283 q -1.003495,0.14084144 -1.716505,0.14084144 -0.95068,0 -1.346796,-0.5457606 -0.396117,-0.5545632 -0.396117,-1.7165051 0,-2.3150813 1.839741,-2.3150813 0.889062,0 1.329192,0.5017477 0.440129,0.492945 0.440129,1.5580585 l -0.03521,0.5017476 H 35.27074 q 0,0.730615 0.264078,1.08271862 0.264077,0.35210362 0.915469,0.35210362 0.660194,0 1.337994,-0.0528155 z m -0.23767,-1.9101621 q 0,-0.8098383 -0.264078,-1.1443368 -0.255275,-0.3344984 -0.845049,-0.3344984 -0.580971,0 -0.880259,0.3521036 -0.290485,0.3521036 -0.299288,1.1267316 z"
     style="fill:#154164;fill-opacity:1;stroke-width:0.13083319"
     id="path858" /><path
     d="m 42.355588,-3.072104 v 2.2534631 q 0.02641,0.32569584 0.51055,0.38731397 L 42.83973,0.0880259 q -0.695405,0 -1.047508,-0.35210361 -0.792233,0.35210361 -1.584466,0.35210361 -0.607379,0 -0.924272,-0.34330102 -0.316894,-0.34330103 -0.316894,-0.98589008 0,-0.6425891 0.325696,-0.9418772 0.325696,-0.3080907 1.021101,-0.3785114 l 1.382006,-0.1320389 V -3.072104 q 0,-0.4489321 -0.193657,-0.6425891 -0.193657,-0.193657 -0.528155,-0.193657 -0.704207,0 -1.46123,0.088026 l -0.27288,0.026408 -0.02641,-0.5017477 q 0.968285,-0.193657 1.716505,-0.193657 0.74822,0 1.082719,0.343301 0.343301,0.3433011 0.343301,1.0739161 z m -2.711198,1.7957284 q 0,0.80983831 0.668997,0.80983831 0.598576,0 1.179547,-0.20245958 l 0.202459,-0.0704207 V -2.191845 l -1.302783,0.1232363 q -0.396117,0.03521 -0.572168,0.2288673 -0.176052,0.193657 -0.176052,0.5633658 z"
     style="fill:#154164;fill-opacity:1;stroke-width:0.13083319"
     id="path860" /><path
     d="m 44.326955,0 h -0.660194 v -4.4012952 h 0.651391 v 0.3080907 q 0.71301,-0.3961166 1.364402,-0.3961166 0.880259,0 1.179547,0.4753399 0.308091,0.4753399 0.308091,1.6900973 V 0 H 46.5188 v -2.3062787 q 0,-0.9154694 -0.184854,-1.2499678 -0.176052,-0.343301 -0.765826,-0.343301 -0.281683,0 -0.598576,0.088026 -0.308091,0.079223 -0.47534,0.1584466 l -0.167249,0.079223 z"
     style="fill:#154164;fill-opacity:1;stroke-width:0.13083319"
     id="path862" /><path
     d="m 52.133205,-5.5896449 q -1.320389,0 -1.320389,0.9946927 0,0.5545632 0.299288,0.7658254 0.308091,0.2024596 1.232363,0.4137217 0.933074,0.2024596 1.320388,0.536958 0.387314,0.3256959 0.387314,1.0827187 0,1.87495171 -1.945372,1.87495171 -0.642589,0 -1.610874,-0.14964403 l -0.316894,-0.04401295 0.07042,-0.56336579 q 1.197152,0.15844663 1.822136,0.15844663 1.302784,0 1.302784,-1.22356007 0,-0.4929451 -0.290486,-0.7042072 -0.281683,-0.2200648 -1.065113,-0.3697088 -1.029903,-0.2200648 -1.46123,-0.5633658 -0.431327,-0.3521036 -0.431327,-1.1707445 0,-1.6372818 1.962978,-1.6372818 0.642589,0 1.540453,0.1320388 l 0.299288,0.044013 -0.06162,0.5721684 q -1.22356,-0.1496441 -1.73411,-0.1496441 z"
     style="fill:#154164;fill-opacity:1;stroke-width:0.13083319"
     id="path864" /><path
     d="m 54.923349,-2.2094502 q 0,-1.2059549 0.431327,-1.7429129 0.431327,-0.536958 1.452427,-0.536958 1.029903,0 1.452427,0.536958 0.431327,0.536958 0.431327,1.7429129 0,1.2059549 -0.404919,1.7517155 -0.404919,0.5457606 -1.478835,0.5457606 -1.073916,0 -1.478835,-0.5457606 -0.404919,-0.5457606 -0.404919,-1.7517155 z m 0.677799,-0.0088 q 0,0.9594824 0.228867,1.34679635 0.23767,0.38731398 0.977088,0.38731398 0.74822,0 0.977088,-0.37851139 0.228867,-0.38731394 0.228867,-1.35559894 0,-0.9682849 -0.255275,-1.3291911 -0.255275,-0.3697088 -0.95068,-0.3697088 -0.686602,0 -0.95068,0.3697088 -0.255275,0.3609062 -0.255275,1.3291911 z"
     style="fill:#154164;fill-opacity:1;stroke-width:0.13083319"
     id="path866" /><path
     d="m 59.811812,0 v -6.3202599 h 0.660194 V 0 Z"
     style="fill:#154164;fill-opacity:1;stroke-width:0.13083319"
     id="path868" /><path
     d="m 64.895035,-3.072104 v 2.2534631 q 0.02641,0.32569584 0.510551,0.38731397 l -0.02641,0.51935283 q -0.695405,0 -1.047508,-0.35210361 -0.792234,0.35210361 -1.584467,0.35210361 -0.607378,0 -0.924272,-0.34330102 -0.316893,-0.34330103 -0.316893,-0.98589008 0,-0.6425891 0.325696,-0.9418772 0.325696,-0.3080907 1.0211,-0.3785114 l 1.382007,-0.1320389 V -3.072104 q 0,-0.4489321 -0.193657,-0.6425891 -0.193657,-0.193657 -0.528155,-0.193657 -0.704208,0 -1.46123,0.088026 l -0.272881,0.026408 -0.02641,-0.5017477 q 0.968285,-0.193657 1.716505,-0.193657 0.74822,0 1.082718,0.343301 0.343301,0.3433011 0.343301,1.0739161 z m -2.711197,1.7957284 q 0,0.80983831 0.668996,0.80983831 0.598577,0 1.179548,-0.20245958 l 0.202459,-0.0704207 V -2.191845 l -1.302783,0.1232363 q -0.396117,0.03521 -0.572169,0.2288673 -0.176051,0.193657 -0.176051,0.5633658 z"
     style="fill:#154164;fill-opacity:1;stroke-width:0.13083319"
     id="path870" /><path
     d="m 66.206205,0 v -4.4012952 h 0.651391 v 0.5985762 q 0.765826,-0.5281555 1.610874,-0.6954047 v 0.6689969 q -0.369708,0.070421 -0.774628,0.2200647 -0.396116,0.1496441 -0.607378,0.2640778 l -0.220065,0.1144336 V 0 Z"
     style="fill:#154164;fill-opacity:1;stroke-width:0.13083319"
     id="path872" /><path
     d="m 71.306486,0 v -6.0913925 h 1.267573 l 2.332686,5.49281635 H 75.0916 V -6.0913925 h 0.668997 V 0 h -1.241166 l -2.367896,-5.4928164 h -0.16725 V 0 Z"
     style="fill:#154164;fill-opacity:1;stroke-width:0.13083319"
     id="path874" /><path
     d="m 80.081982,-0.5457606 0.255275,-0.0264078 0.01761,0.51935283 q -1.003495,0.14084144 -1.716505,0.14084144 -0.95068,0 -1.346796,-0.5457606 -0.396117,-0.5545632 -0.396117,-1.7165051 0,-2.3150813 1.839742,-2.3150813 0.889061,0 1.329191,0.5017477 0.440129,0.492945 0.440129,1.5580585 l -0.03521,0.5017476 h -2.904855 q 0,0.730615 0.264078,1.08271862 0.264077,0.35210362 0.915469,0.35210362 0.660194,0 1.337994,-0.0528155 z m -0.23767,-1.9101621 q 0,-0.8098383 -0.264078,-1.1443368 -0.255275,-0.3344984 -0.845048,-0.3344984 -0.580971,0 -0.880259,0.3521036 -0.290486,0.3521036 -0.299289,1.1267316 z"
     style="fill:#154164;fill-opacity:1;stroke-width:0.13083319"
     id="path876" /><path
     d="m 83.78746,-3.8291268 h -1.399612 v 2.1038191 q 0,0.75702276 0.105631,0.9946927 0.114433,0.23766994 0.528155,0.23766994 L 83.805065,-0.5457606 83.849078,0 q -0.589774,0.09682849 -0.897864,0.09682849 -0.686603,0 -0.95068,-0.33449843 -0.264078,-0.33449843 -0.264078,-1.27637556 v -2.3150813 h -0.624984 v -0.5721684 h 0.624984 v -1.3467963 h 0.651392 v 1.3467963 h 1.399612 z"
     style="fill:#154164;fill-opacity:1;stroke-width:0.13083319"
     id="path878" /><path
     d="m 84.24134,-4.4012952 h 0.660195 l 0.889061,3.82912683 h 0.140842 l 1.047508,-3.74110093 h 0.686602 l 1.047508,3.74110093 H 88.8627 l 0.880259,-3.82912683 h 0.660195 L 89.355645,0 H 88.255322 L 87.322247,-3.4418128 86.389172,0 h -1.100323 z"
     style="fill:#154164;fill-opacity:1;stroke-width:0.13083319"
     id="path880" /><path
     d="m 91.062108,-2.2094502 q 0,-1.2059549 0.431327,-1.7429129 0.431327,-0.536958 1.452428,-0.536958 1.029903,0 1.452427,0.536958 0.431327,0.536958 0.431327,1.7429129 0,1.2059549 -0.404919,1.7517155 -0.404919,0.5457606 -1.478835,0.5457606 -1.073916,0 -1.478836,-0.5457606 -0.404919,-0.5457606 -0.404919,-1.7517155 z m 0.6778,-0.0088 q 0,0.9594824 0.228867,1.34679635 0.23767,0.38731398 0.977088,0.38731398 0.74822,0 0.977087,-0.37851139 0.228867,-0.38731394 0.228867,-1.35559894 0,-0.9682849 -0.255275,-1.3291911 -0.255275,-0.3697088 -0.950679,-0.3697088 -0.686602,0 -0.95068,0.3697088 -0.255275,0.3609062 -0.255275,1.3291911 z"
     style="fill:#154164;fill-opacity:1;stroke-width:0.13083319"
     id="path882" /><path
     d="m 95.897756,0 v -4.4012952 h 0.651392 v 0.5985762 q 0.765825,-0.5281555 1.610874,-0.6954047 v 0.6689969 q -0.369709,0.070421 -0.774628,0.2200647 -0.396117,0.1496441 -0.607379,0.2640778 L 96.55795,-3.2305507 V 0 Z"
     style="fill:#154164;fill-opacity:1;stroke-width:0.13083319"
     id="path884" /><path
     d="m 99.601033,0 h -0.660194 v -6.3202599 h 0.660194 v 3.7322983 l 0.686607,-0.03521 1.25877,-1.7781233 h 0.74822 L 100.8598,-2.3766994 102.35624,0 h -0.74822 l -1.31158,-2.042201 -0.695407,0.026408 z"
     style="fill:#154164;fill-opacity:1;stroke-width:0.13083319"
     id="path886" /></g>




</g></g></g></g></g></g></svg>